# xmcd
#
# Track frame offsets:
#	150
#	12982
#	27552
#	41437
#	62715
#	78375
#	94372
#	107715
#	131312
#	147082
#	161580
#	176670
#	194870
#	211242
#	245610
#	258385
#
# Disc length: 3677 seconds
#
# Revision: 12
# Processed by: cddbd v1.5.2PL0 Copyright (c) Steve Scherf et al.
# Submitted via: EasyCDDAExtractor 15.3.0.1
#
DISCID=e40e5b10
DTITLE=Selena - All My Hits - Todos Mis Exitos
DYEAR=1999
DGENRE=Latin
TTITLE0=Amor Prohibido
TTITLE1=Tu Solo Tu
TTITLE2=Como La Flor
TTITLE3=I Could Fall In Love
TTITLE4=El Chico Del Apartamento 512
TTITLE5=Que Creias
TTITLE6=Baila Esta Cumbia
TTITLE7=Dreaming Of You
TTITLE8=Bidi Bidi Bom Bom
TTITLE9=La Llamada
TTITLE10=No Me Queda Mas
TTITLE11=I'm Getting Used To You
TTITLE12=La Carcacha
TTITLE13=Disco Medley (I Will Survive, Funky Town, Last Dance, The Hustle, On 
TTITLE13=The Radio)
TTITLE14=No Debes Jugar
TTITLE15=Missing My Baby
EXTD=YEAR: 1999
EXTT0=
EXTT1=
EXTT2=
EXTT3=
EXTT4=
EXTT5=
EXTT6=
EXTT7=
EXTT8=
EXTT9=
EXTT10=
EXTT11=
EXTT12=
EXTT13=will survive/ Funky Town/ Last Dance/ The Hustle/ On the radio
EXTT14=
EXTT15=
PLAYORDER=
